<svg xmlns="http://www.w3.org/2000/svg" width="12" height="12" fill="none" viewBox="0 0 48 48"><path stroke="#fff" stroke-linecap="butt" stroke-linejoin="round" stroke-width="4" d="M23.8 14C29.4333 14 34 18.4772 34 24C34 29.5228 29.4333 34 23.8 34C21.1876 34 18.8046 33.0372 17 31.4537"/><path stroke="#fff" stroke-linecap="butt" stroke-linejoin="round" stroke-width="4" d="M24 4C35.0457 4 44 12.9543 44 24C44 35.0457 35.0457 44 24 44C18.5856 44 13.6737 41.8485 10.0726 38.3537C6.32733 34.719 4 29.6313 4 24C4 18.6326 6.11433 13.759 9.55556 10.1667"/><path stroke="#fff" stroke-linecap="butt" stroke-linejoin="round" stroke-width="4" d="M9.55566 10.1667L24.0001 24L10.0727 38.3537"/></svg>